<svg width="201" height="100" viewBox="0 0 201 100" fill="none" xmlns="http://www.w3.org/2000/svg">
<g clip-path="url(#clip0_6_492)">
<path d="M72.6888 51.8269V53.055H66.5085V56.9488H72.0372V58.173H66.5085V63.208H65.0711V51.8269H72.6888ZM79.5956 51.6057C82.9681 51.6057 85.2664 53.7421 85.2664 57.5293C85.2664 61.3164 82.9681 63.4528 79.5956 63.4528C76.2231 63.4528 73.9209 61.3164 73.9209 57.5293C73.9209 53.7421 76.2192 51.6057 79.5956 51.6057ZM79.5956 62.1812C82.1309 62.1812 83.7895 60.4871 83.7895 57.5174C83.7895 54.5477 82.1309 52.8536 79.5956 52.8536C77.0603 52.8536 75.3978 54.5477 75.3978 57.5174C75.3978 60.4871 77.0564 62.1812 79.5956 62.1812ZM88.8324 51.8269V58.9786C88.8324 61.0202 89.8986 62.1378 91.9916 62.1378C94.0846 62.1378 95.1508 61.032 95.1508 58.9786V51.8269H96.608V59.0101C96.608 61.6757 95.0956 63.3975 92.0074 63.3975C88.9193 63.3975 87.4186 61.6718 87.4186 59.0101V51.8269H88.8324ZM101.007 51.8269L106.832 61.0952H106.958V51.8269H108.356V63.208H106.611L100.794 53.9396H100.668V63.208H99.2697V51.8269H101.007ZM120.875 57.5174C120.875 61.0715 118.644 63.208 115.295 63.208H111.125V51.8269H115.295C118.644 51.8269 120.875 53.9791 120.875 57.5174ZM115.255 61.968C117.735 61.968 119.402 60.3884 119.402 57.5253C119.402 54.6623 117.735 53.0826 115.255 53.0826H112.57V61.968H115.255ZM127.75 51.8348L131.904 62.9789V63.2159H130.459L129.274 59.9421H124.334L123.149 63.2159H121.744V62.9789L125.89 51.8348H127.75ZM128.84 58.6942L126.866 53.288H126.739L124.765 58.6942H128.84ZM141.426 51.8348V53.0905H137.319V63.2159H135.865V53.0826H131.77V51.8269L141.426 51.8348ZM144.778 51.8348V63.2159H143.325V51.8269L144.778 51.8348ZM152.625 51.6136C155.998 51.6136 158.3 53.75 158.3 57.5372C158.3 61.3243 155.998 63.4607 152.625 63.4607C149.253 63.4607 146.95 61.3243 146.95 57.5372C146.95 53.75 149.249 51.6057 152.625 51.6057V51.6136ZM152.625 62.1891C155.16 62.1891 156.819 60.495 156.819 57.5253C156.819 54.5556 155.16 52.8615 152.625 52.8615C150.09 52.8615 148.427 54.5556 148.427 57.5253C148.427 60.495 150.09 62.1812 152.625 62.1812V62.1891ZM162.217 51.8269L168.042 61.0952H168.168V51.8269H169.566V63.208H167.821L162.004 53.9396H161.878V63.208H160.48V51.8269H162.217Z" fill="#DDDDDD"/>
<path d="M71.4251 37.6933C70.3614 37.6278 69.3138 37.9775 68.5028 38.6688L67.1404 39.8535C67.0728 39.914 66.9864 39.9493 66.8958 39.9537C66.8052 39.958 66.7158 39.931 66.6428 39.8772C66.6051 39.8488 66.5739 39.8129 66.551 39.7717C66.5282 39.7305 66.5142 39.685 66.5101 39.6381C66.506 39.5911 66.5119 39.5438 66.5272 39.4993C66.5426 39.4548 66.5672 39.414 66.5994 39.3796L67.322 38.2738C67.3505 38.2413 67.3686 38.2009 67.374 38.158C67.3794 38.1151 67.3718 38.0715 67.3523 38.0329C67.3328 37.9943 67.3022 37.9624 67.2644 37.9413C67.2267 37.9202 67.1835 37.9109 67.1404 37.9145H65.3989C65.3509 37.9129 65.303 37.921 65.2583 37.9384C65.2135 37.9558 65.1727 37.9821 65.1384 38.0157C65.1041 38.0493 65.0769 38.0894 65.0586 38.1338C65.0402 38.1782 65.031 38.2258 65.0316 38.2738V48.8849C65.0311 48.9328 65.0401 48.9802 65.0582 49.0246C65.0762 49.0689 65.103 49.1091 65.1368 49.143C65.1707 49.1768 65.2109 49.2036 65.2553 49.2216C65.2996 49.2397 65.347 49.2487 65.3949 49.2482H67.2075C67.255 49.2482 67.3021 49.2388 67.346 49.2205C67.3898 49.2022 67.4296 49.1754 67.463 49.1416C67.4964 49.1078 67.5228 49.0677 67.5407 49.0236C67.5585 48.9796 67.5674 48.9324 67.5669 48.8849V42.9061C67.5669 40.1654 69.8573 39.7468 70.7261 39.7468C72.5584 39.7468 73.2179 41.0579 73.2179 42.057V48.8849C73.2174 48.9324 73.2263 48.9796 73.2441 49.0236C73.262 49.0677 73.2884 49.1078 73.3218 49.1416C73.3552 49.1754 73.395 49.2022 73.4389 49.2205C73.4827 49.2388 73.5298 49.2482 73.5773 49.2482H75.3899C75.4378 49.2487 75.4852 49.2397 75.5296 49.2216C75.5739 49.2036 75.6141 49.1768 75.648 49.143C75.6818 49.1091 75.7086 49.0689 75.7266 49.0246C75.7447 48.9802 75.7537 48.9328 75.7532 48.8849V41.828C75.7532 39.2927 74.0986 37.7052 71.4093 37.7052L71.4251 37.6933Z" fill="#DDDDDD"/>
<path d="M83.1339 37.6499C79.6233 37.6499 77.3802 39.8021 77.3802 42.7244V44.3317C77.3802 47.4119 79.6233 49.5207 83.1339 49.5207C86.2379 49.5207 88.4099 47.9095 88.6389 45.7375C88.6475 45.6865 88.6443 45.6341 88.6296 45.5845C88.6149 45.5348 88.589 45.4892 88.5539 45.4511C88.5189 45.413 88.4756 45.3834 88.4273 45.3646C88.3791 45.3458 88.3272 45.3383 88.2756 45.3426H86.5104C86.4339 45.3391 86.3585 45.3619 86.2967 45.4072C86.2349 45.4524 86.1905 45.5174 86.1708 45.5914C85.9417 46.318 84.8794 47.404 83.1339 47.404C81.3885 47.404 79.7575 46.1364 79.7812 44.3238L79.8049 42.3058C79.8247 40.7894 81.4122 39.7468 83.1339 39.7468C84.7136 39.7468 86.2142 40.6314 86.3722 42.0807C86.3785 42.1621 86.3546 42.2429 86.305 42.3077C86.2555 42.3726 86.1838 42.4169 86.1036 42.4322L81.0252 43.4194C80.9228 43.442 80.8313 43.4991 80.7659 43.581C80.7005 43.6629 80.6651 43.7648 80.6658 43.8696V43.8933C80.6658 44.0987 80.8672 44.2882 81.1634 44.2882H88.4572C88.5529 44.2882 88.6447 44.2505 88.7128 44.1832C88.7808 44.1159 88.8195 44.0245 88.8206 43.9289V42.4954C88.8206 39.8021 86.4867 37.6499 83.1339 37.6499Z" fill="#DDDDDD"/>
<path d="M95.7748 37.6499C92.9433 37.6499 90.4949 39.3006 90.4949 41.4765C90.4974 41.5213 90.5089 41.5652 90.5286 41.6055C90.5483 41.6458 90.576 41.6818 90.6098 41.7112C90.6437 41.7407 90.6831 41.7631 90.7258 41.777C90.7685 41.791 90.8135 41.7962 90.8583 41.7924H92.6945C92.7801 41.7908 92.8621 41.7577 92.9248 41.6994C92.9875 41.6411 93.0264 41.5618 93.0342 41.4765C93.2158 40.4814 94.4163 39.7547 95.7037 39.7547C97.2438 39.7547 98.2864 40.7065 98.2864 42.3374V44.3119C98.2864 46.3299 96.7936 47.3487 94.9337 47.3487C93.4844 47.3487 92.6472 46.8038 92.6472 45.9192C92.6472 45.1491 93.0421 44.4936 94.7323 44.1105L97.153 43.451C97.2062 43.4396 97.2564 43.4174 97.3006 43.3857C97.3447 43.354 97.3819 43.3136 97.4097 43.2669C97.4375 43.2202 97.4553 43.1682 97.4621 43.1143C97.4689 43.0604 97.4645 43.0056 97.4492 42.9535C97.4255 42.7718 97.2241 42.681 97.0543 42.681H94.5388C92.4102 42.681 90.258 44.0394 90.258 46.0337V46.3496C90.258 48.3913 92.1851 49.4536 94.3808 49.4536C95.6017 49.4579 96.7864 49.0392 97.7335 48.2688L98.8432 47.3171C98.8758 47.2802 98.9159 47.2505 98.9609 47.2303C99.0058 47.21 99.0545 47.1995 99.1038 47.1995C99.1531 47.1995 99.2019 47.21 99.2468 47.2303C99.2917 47.2505 99.3319 47.2802 99.3645 47.3171C99.4183 47.3902 99.4453 47.4795 99.441 47.5701C99.4367 47.6607 99.4013 47.7471 99.3408 47.8147L98.6615 48.8809C98.6337 48.914 98.6161 48.9545 98.611 48.9974C98.6059 49.0403 98.6135 49.0837 98.6328 49.1224C98.6522 49.161 98.6824 49.1932 98.7198 49.2148C98.7571 49.2365 98.8001 49.2467 98.8432 49.2443H100.474C100.571 49.2443 100.663 49.206 100.731 49.1378C100.799 49.0697 100.837 48.9773 100.837 48.8809V42.0215C100.837 39.3914 98.9577 37.6499 95.7827 37.6499H95.7748Z" fill="#DDDDDD"/>
<path d="M110.611 37.9224H108.076C107.195 37.9224 106.335 38.4634 105.707 38.9846L104.719 39.8534C104.658 39.9065 104.582 39.9396 104.502 39.948C104.421 39.9565 104.34 39.94 104.269 39.9008C104.227 39.8739 104.192 39.8387 104.164 39.7972C104.136 39.7558 104.118 39.7091 104.109 39.6601C104.101 39.6111 104.103 39.5609 104.114 39.5126C104.126 39.4643 104.148 39.419 104.178 39.3795L104.917 38.2738C104.945 38.2412 104.963 38.2009 104.969 38.158C104.974 38.1151 104.967 38.0715 104.947 38.0329C104.928 37.9943 104.897 37.9624 104.859 37.9413C104.821 37.9202 104.778 37.9108 104.735 37.9145H103.037C102.99 37.9139 102.942 37.9228 102.898 37.9407C102.854 37.9585 102.814 37.9849 102.78 38.0183C102.747 38.0517 102.72 38.0915 102.701 38.1354C102.683 38.1792 102.674 38.2263 102.674 38.2738V48.8849C102.673 48.9327 102.682 48.9802 102.7 49.0245C102.718 49.0688 102.745 49.1091 102.779 49.1429C102.813 49.1768 102.853 49.2035 102.897 49.2216C102.942 49.2397 102.989 49.2487 103.037 49.2482H104.897C104.945 49.2487 104.992 49.2397 105.036 49.2215C105.08 49.2034 105.12 49.1766 105.154 49.1427C105.187 49.1088 105.214 49.0685 105.231 49.0242C105.249 48.9799 105.257 48.9325 105.256 48.8849V43.447C105.256 41.1132 106.208 40.0746 108.27 40.0746H110.639C110.735 40.0746 110.828 40.0363 110.896 39.9682C110.964 39.9 111.002 39.8076 111.002 39.7113V38.2738C111.002 38.2263 110.993 38.1792 110.975 38.1354C110.956 38.0915 110.929 38.0517 110.896 38.0183C110.862 37.9849 110.822 37.9585 110.778 37.9407C110.734 37.9228 110.686 37.9139 110.639 37.9145L110.611 37.9224Z" fill="#DDDDDD"/>
<path d="M53.1332 37.4524C52.6574 37.451 52.1894 37.5724 51.7743 37.8049C51.3592 38.0373 51.0111 38.373 50.7637 38.7793L45.3101 46.8748C45.2328 46.9915 45.2002 47.1323 45.2184 47.2711C45.2366 47.4099 45.3043 47.5375 45.4091 47.6303C45.514 47.7231 45.6488 47.7749 45.7888 47.7761C45.9288 47.7774 46.0646 47.7279 46.171 47.637L51.5417 42.9811C51.5823 42.9413 51.6369 42.919 51.6937 42.919C51.7506 42.919 51.8052 42.9413 51.8458 42.9811C51.883 43.022 51.9028 43.0759 51.9011 43.1312V57.711C51.9041 57.7583 51.8916 57.8053 51.8654 57.8449C51.8392 57.8844 51.8008 57.9143 51.7561 57.93C51.7113 57.9456 51.6626 57.9462 51.6175 57.9316C51.5724 57.917 51.5333 57.8881 51.5062 57.8492L35.2756 38.42C35.0155 38.1111 34.6908 37.863 34.3244 37.6931C33.958 37.5232 33.5589 37.4357 33.155 37.4367H32.5863C31.8532 37.4367 31.1501 37.7279 30.6317 38.2463C30.1133 38.7647 29.822 39.4678 29.822 40.201V60.7359C29.8155 61.3428 30.0089 61.935 30.3724 62.4211C30.7359 62.9072 31.2493 63.2601 31.8333 63.4254C32.4173 63.5907 33.0394 63.5592 33.6038 63.3358C34.1681 63.1124 34.6432 62.7095 34.9558 62.1892L40.4094 54.0937C40.4868 53.977 40.5193 53.8363 40.5011 53.6974C40.483 53.5586 40.4152 53.431 40.3104 53.3382C40.2055 53.2454 40.0707 53.1936 39.9307 53.1924C39.7907 53.1912 39.6549 53.2406 39.5485 53.3315L34.1936 58.019C34.174 58.0397 34.1505 58.0561 34.1243 58.0674C34.0982 58.0787 34.07 58.0845 34.0416 58.0845C34.0131 58.0845 33.9849 58.0787 33.9588 58.0674C33.9327 58.0561 33.9091 58.0397 33.8895 58.019C33.8702 57.9994 33.8552 57.9758 33.8457 57.95C33.8361 57.9241 33.8322 57.8965 33.8342 57.8689V43.2694C33.8342 43.241 33.8399 43.213 33.8508 43.1868C33.8618 43.1607 33.8779 43.137 33.8981 43.1172C33.9183 43.0973 33.9423 43.0817 33.9686 43.0712C33.995 43.0607 34.0231 43.0556 34.0514 43.0561C34.0829 43.0559 34.114 43.0625 34.1426 43.0754C34.1712 43.0884 34.1967 43.1074 34.2173 43.1312L50.4439 62.5643C50.7049 62.8722 51.0298 63.1195 51.396 63.2893C51.7622 63.4591 52.1609 63.5473 52.5645 63.5476H53.1332C53.8647 63.5425 54.5648 63.2496 55.0821 62.7323C55.5994 62.215 55.8923 61.5149 55.8975 60.7833V40.2484C55.8975 39.5152 55.6062 38.8121 55.0878 38.2937C54.5694 37.7753 53.8663 37.484 53.1332 37.484V37.4524Z" fill="#DDDDDD"/>
</g>
<defs>
<clipPath id="clip0_6_492">
<rect x="0.5" width="200" height="100" rx="25" fill="white"/>
</clipPath>
</defs>
</svg>
