<svg width="201" height="100" viewBox="0 0 201 100" fill="none" xmlns="http://www.w3.org/2000/svg">
<g clip-path="url(#clip0_6_497)">
<path d="M70.4931 36.7969H70.4141V60.6569L60.1466 36.8364H47.6559V64.2032H54.3297V40.3036L64.6367 64.1637H77.0722V36.7969H70.4931Z" fill="#DDDDDD"/>
<path fill-rule="evenodd" clip-rule="evenodd" d="M70.272 36.6508H77.2341V64.3374H64.5459V64.2031L54.4837 41.0381V64.3374H47.5058V36.6508H60.2454V36.785L70.2325 59.9184L70.272 36.6508ZM70.4141 60.6569L60.1467 36.8364H47.6559V64.2031H54.3297V40.3036L64.6367 64.1637H77.0722V36.7969H70.3983L70.4141 60.6569Z" fill="#DDDDDD"/>
<path d="M152.795 36.7969H140.276L133.879 60.7833L127.486 36.8482H114.849V64.2032H121.522V40.4616L127.841 64.1123H139.83L146.2 40.505V64.2426H152.874V36.7969H152.795Z" fill="#DDDDDD"/>
<path fill-rule="evenodd" clip-rule="evenodd" d="M140.158 36.6508H153.016V64.3374H146.042V41.6502L140.028 64.1913V64.3493H127.734V64.1913L121.68 41.6502V64.3374H114.789V36.6508H127.675V36.8245L133.915 60.1791L140.138 36.8245L140.158 36.6508ZM133.879 60.7833L127.486 36.8482H114.849V64.2031H121.522V40.4616L127.841 64.1123H139.83L146.2 40.505V64.2426H152.874V36.7969H140.276L133.879 60.7833Z" fill="#DDDDDD"/>
<path d="M104.127 36.7969L96.1342 50.2512L88.169 36.8245H80.4802V36.9153L92.7459 57.6754V64.2032H99.4197V57.6754L111.725 36.9153L111.788 36.7969H104.127Z" fill="#DDDDDD"/>
<path fill-rule="evenodd" clip-rule="evenodd" d="M103.981 36.6508H112.132L111.922 36.9825L99.6014 57.7149V64.3098H92.6274V57.7149L80.3854 36.9825L80.1761 36.6508H88.2479V36.7574L96.0828 49.9471L103.874 36.7574L103.981 36.6508ZM104.06 36.8245L96.1342 50.2512L88.169 36.8245H80.4802V36.9153L92.7459 57.6754V64.2031H99.4198V57.6754L111.725 36.9153L111.788 36.7969H104.072L104.06 36.8245Z" fill="#DDDDDD"/>
</g>
<defs>
<clipPath id="clip0_6_497">
<rect x="0.5" width="200" height="100" rx="25" fill="white"/>
</clipPath>
</defs>
</svg>
