<svg width="201" height="100" viewBox="0 0 201 100" fill="none" xmlns="http://www.w3.org/2000/svg">
<g clip-path="url(#clip0_6_485)">
<path d="M56.5017 57.5569L51.9485 62.4024C51.8471 62.5095 51.7245 62.5943 51.5885 62.6514C51.4525 62.7085 51.3061 62.7367 51.1587 62.7341H29.5812C29.4786 62.7339 29.3784 62.7037 29.2929 62.6472C29.2346 62.6111 29.1841 62.5636 29.1445 62.5076C29.1049 62.4516 29.0769 62.3882 29.0622 62.3212C29.0474 62.2542 29.0463 62.1849 29.0588 62.1175C29.0713 62.05 29.0972 61.9858 29.1349 61.9285C29.1512 61.9009 29.1711 61.8757 29.1941 61.8535L33.7474 57.008C33.8488 56.9009 33.9714 56.8161 34.1074 56.759C34.2433 56.7019 34.3897 56.6737 34.5372 56.6763H56.1305C56.2339 56.6752 56.3353 56.704 56.4227 56.7592C56.5388 56.8337 56.6206 56.9512 56.6502 57.0859C56.6798 57.2207 56.6548 57.3616 56.5807 57.4779C56.5568 57.5066 56.5304 57.533 56.5017 57.5569ZM51.9485 47.8028C51.8471 47.6957 51.7245 47.6109 51.5885 47.5538C51.4525 47.4967 51.3061 47.4685 51.1587 47.4711H29.5812C29.4777 47.4676 29.3755 47.495 29.2877 47.5498C29.1998 47.6046 29.1303 47.6843 29.0879 47.7788C29.0456 47.8732 29.0323 47.9782 29.0498 48.0802C29.0673 48.1823 29.1148 48.2768 29.1863 48.3517L33.7395 53.1972C33.8409 53.3043 33.9635 53.3891 34.0995 53.4462C34.2354 53.5033 34.3818 53.5315 34.5293 53.5289H56.1226C56.2266 53.5305 56.3286 53.5001 56.4148 53.442C56.5013 53.3874 56.5689 53.3074 56.6083 53.213C56.6499 53.1197 56.6627 53.0162 56.6451 52.9156C56.6275 52.815 56.5804 52.7219 56.5096 52.6483L51.9485 47.8028ZM29.5812 44.3277H51.1784C51.326 44.3285 51.4722 44.2992 51.608 44.2415C51.7438 44.1838 51.8664 44.0989 51.9682 43.992L56.5214 39.1505C56.5728 39.0948 56.6113 39.0285 56.6345 38.9564C56.6576 38.8842 56.6647 38.8079 56.6553 38.7327C56.6459 38.6575 56.6202 38.5853 56.58 38.521C56.5399 38.4568 56.4862 38.4021 56.4227 38.3607C56.3369 38.3048 56.2369 38.2747 56.1344 38.2738H34.5214C34.3769 38.2742 34.2341 38.3042 34.1016 38.362C33.9692 38.4197 33.85 38.5039 33.7513 38.6095L29.1941 43.4431C29.1247 43.5175 29.0785 43.6105 29.0609 43.7108C29.0434 43.811 29.0554 43.9142 29.0954 44.0078C29.1376 44.1017 29.2062 44.1813 29.2929 44.2368C29.3777 44.2949 29.4784 44.3252 29.5812 44.3237V44.3277Z" fill="#DDDDDD"/>
<path d="M67.1206 44.0236H72.6493V45.8599H65.0592V47.8345H72.5624C72.8329 47.8355 73.1009 47.783 73.351 47.68C73.6011 47.5769 73.8283 47.4254 74.0195 47.2342C74.2108 47.0429 74.3623 46.8157 74.4653 46.5656C74.5684 46.3155 74.6209 46.0475 74.6198 45.777V44.1145C74.6198 43.5705 74.404 43.0488 74.0198 42.6638C73.6355 42.2788 73.1142 42.062 72.5703 42.061H67.0416V40.2484H74.6356V38.2739H67.1325C66.863 38.2739 66.5961 38.327 66.3472 38.4302C66.0983 38.5335 65.8722 38.6848 65.6818 38.8755C65.4914 39.0663 65.3406 39.2927 65.2378 39.5418C65.135 39.7909 65.0824 40.0579 65.0829 40.3273V41.982C65.084 42.5259 65.3008 43.0472 65.6858 43.4315C66.0708 43.8157 66.5925 44.0315 67.1364 44.0315L67.1206 44.0236ZM84.2515 38.2739H78.4109C77.8666 38.2749 77.3449 38.4916 76.96 38.8765C76.5751 39.2613 76.3584 39.783 76.3574 40.3273V45.777C76.3584 46.3209 76.5753 46.8422 76.9602 47.2265C77.3452 47.6108 77.867 47.8266 78.4109 47.8266H84.2515C84.7951 47.8266 85.3164 47.6106 85.7008 47.2263C86.0851 46.8419 86.3011 46.3206 86.3011 45.777V40.3194C86.299 39.7769 86.0822 39.2572 85.6982 38.8739C85.3142 38.4906 84.7941 38.2749 84.2515 38.2739ZM84.3423 40.2484V45.8599H78.3201V40.2484H84.3423ZM89.3379 47.8384H97.4136V45.8639H90.0289V38.2739H88.0544V46.5668C88.0607 46.9024 88.1989 47.2219 88.4391 47.4563C88.6794 47.6906 89.0023 47.8208 89.3379 47.8187V47.8384ZM107.444 38.2739H100.826C100.385 38.2749 99.9627 38.4504 99.6511 38.762C99.3396 39.0735 99.1641 39.4958 99.1631 39.9364V47.8345H101.138V44.7068H107.16V47.8187H109.134V39.9206C109.132 39.7014 109.086 39.4849 109 39.2834C108.913 39.082 108.788 38.8995 108.631 38.7465C108.474 38.5936 108.288 38.4731 108.085 38.392C107.881 38.3109 107.663 38.2707 107.444 38.2739ZM107.144 40.2484V42.7639H101.126V40.2484H107.144ZM118.825 45.8797H118.462L114.789 38.9412C114.68 38.7376 114.517 38.5677 114.318 38.4501C114.119 38.3324 113.891 38.2715 113.66 38.2739H112.116C111.779 38.2728 111.456 38.4052 111.217 38.6421C110.978 38.879 110.842 39.201 110.84 39.5375V47.8305H112.815V40.2484H113.257L116.934 47.1671C117.042 47.3707 117.203 47.5412 117.401 47.6601C117.598 47.7791 117.825 47.8421 118.055 47.8424H119.528C119.864 47.8382 120.184 47.702 120.42 47.4632C120.656 47.2245 120.788 46.9024 120.788 46.5668V38.2739H118.813L118.825 45.8797ZM130.98 38.2739H124.346C123.906 38.2749 123.484 38.4505 123.173 38.7622C122.862 39.0739 122.687 39.4961 122.687 39.9364V47.8345H124.662V44.7068H130.684V47.8187H132.659V39.9206C132.654 39.48 132.474 39.0594 132.16 38.7508C131.845 38.4422 131.421 38.2707 130.98 38.2739ZM130.68 40.2484V42.7639H124.662V40.2484H130.68ZM65.0711 62.7578H67.0456V58.9589H74.4421V56.9844H67.0061V55.1481H74.4026V53.1735H65.0434L65.0711 62.7578ZM84.0541 53.2012H78.2016C77.658 53.2033 77.1373 53.4204 76.7533 53.8052C76.3692 54.19 76.1531 54.7111 76.1521 55.2547V60.7044C76.1515 60.9738 76.2042 61.2408 76.3069 61.4899C76.4097 61.739 76.5606 61.9654 76.751 62.1562C76.9413 62.3469 77.1674 62.4982 77.4164 62.6015C77.6653 62.7047 77.9321 62.7578 78.2016 62.7578H84.0422C84.5862 62.7558 85.1073 62.5387 85.492 62.1541C85.8766 61.7694 86.0936 61.2483 86.0957 60.7044V55.2547C86.0978 54.9833 86.0463 54.7142 85.9441 54.4628C85.8419 54.2114 85.6911 53.9826 85.5003 53.7896C85.3096 53.5966 85.0825 53.4432 84.8323 53.3382C84.5821 53.2331 84.3136 53.1785 84.0422 53.1775L84.0541 53.2012ZM84.1449 55.1757V60.7833H78.1108V55.1402L84.1449 55.1757ZM95.834 59.1247C95.834 59.5615 95.6605 59.9803 95.3517 60.2892C95.0429 60.598 94.624 60.7715 94.1873 60.7715H91.4585C91.0218 60.7715 90.6029 60.598 90.2941 60.2892C89.9852 59.9803 89.8118 59.5615 89.8118 59.1247V53.1775H87.8372V59.5157C87.8383 60.3683 88.1772 61.1857 88.7797 61.7889C89.3822 62.3922 90.1992 62.7321 91.0517 62.7342H94.5585C95.4118 62.7331 96.2298 62.3937 96.8331 61.7903C97.4365 61.187 97.7759 60.369 97.777 59.5157V53.1775H95.8024V59.1247H95.834ZM107.496 60.7833H107.128L103.452 53.8646C103.343 53.6609 103.18 53.4906 102.982 53.3717C102.784 53.2528 102.557 53.1898 102.326 53.1893H100.782C100.445 53.1904 100.121 53.3252 99.8828 53.5643C99.6444 53.8034 99.5106 54.1273 99.5106 54.4649V62.7578H101.485V55.1402H101.927L105.604 62.0589C105.712 62.2625 105.874 62.433 106.071 62.5519C106.269 62.6709 106.495 62.7339 106.725 62.7342H108.194C108.532 62.7342 108.855 62.6002 109.094 62.3617C109.332 62.1232 109.466 61.7998 109.466 61.4626V53.1696H107.492L107.496 60.7833ZM117.913 53.1893H111.2V62.746H117.913C118.336 62.7465 118.755 62.6637 119.146 62.5021C119.537 62.3406 119.892 62.1036 120.191 61.8047C120.491 61.5058 120.728 61.1508 120.89 60.7601C121.052 60.3694 121.135 59.9505 121.135 59.5275V56.3999C121.135 55.9769 121.052 55.5581 120.89 55.1673C120.728 54.7766 120.491 54.4216 120.191 54.1227C119.892 53.8238 119.537 53.5868 119.146 53.4253C118.755 53.2638 118.336 53.1809 117.913 53.1814V53.1893ZM113.151 55.1639H117.526C117.963 55.1639 118.382 55.3374 118.69 55.6462C118.999 55.955 119.173 56.3739 119.173 56.8106V59.1484C119.173 59.5852 118.999 60.004 118.69 60.3129C118.382 60.6217 117.963 60.7952 117.526 60.7952H113.151V55.1639ZM131.154 53.1893H124.536C124.095 53.1904 123.673 53.3659 123.361 53.6774C123.05 53.989 122.874 54.4113 122.873 54.8519V62.7499H124.848V59.6342H130.87V62.7499H132.844V54.8598C132.843 54.4192 132.668 53.9969 132.356 53.6853C132.045 53.3738 131.622 53.1983 131.182 53.1972L131.154 53.1893ZM130.854 55.1639V57.6794H124.836V55.1639H130.854ZM134.554 55.1639H138.349V62.7578H140.324V55.1402H144.119V53.1656H134.554V55.1639ZM147.902 53.1893H145.927V62.746H147.902V53.1893ZM157.743 53.1893H151.91C151.366 53.1914 150.845 53.4084 150.461 53.7931C150.076 54.1778 149.859 54.6989 149.857 55.2428V60.6925C149.857 61.2371 150.073 61.7594 150.458 62.1445C150.843 62.5296 151.366 62.746 151.91 62.746H157.751C158.295 62.7439 158.815 62.5268 159.199 62.142C159.583 61.7572 159.799 61.2361 159.8 60.6925V55.2428C159.8 54.6989 159.585 54.1772 159.2 53.7922C158.816 53.4072 158.295 53.1904 157.751 53.1893H157.743ZM157.834 55.1639V60.7833H151.812V55.1402L157.834 55.1639ZM169.511 53.1893V60.7833H169.148L165.467 53.8646C165.359 53.6607 165.198 53.49 165 53.371C164.803 53.252 164.576 53.1892 164.346 53.1893H162.802C162.464 53.1904 162.141 53.3252 161.902 53.5643C161.664 53.8034 161.53 54.1273 161.53 54.4649V62.7578H163.505V55.1402H163.947L167.623 62.0589C167.733 62.2626 167.895 62.4329 168.093 62.5518C168.291 62.6707 168.518 62.7337 168.749 62.7342H170.214C170.552 62.7342 170.875 62.6003 171.115 62.362C171.354 62.1236 171.489 61.8002 171.49 61.4626V53.1696L169.511 53.1893Z" fill="#DDDDDD"/>
</g>
<defs>
<clipPath id="clip0_6_485">
<rect x="0.5" width="200" height="100" rx="25" fill="white"/>
</clipPath>
</defs>
</svg>
